Jerry williams från SVT "Dom kallar oss artist" 2012-12-29


Format                           : MPEG-4
Format profile                   : Base Media
Codec ID                         : isom
File size                        : 558 MiB
Duration                         : 28mn 16s
Overall bit rate                 : 2 761 Kbps
Writing application              : Lavf54.25.104

Video
ID                               : 1
Format                           : AVC
Format/Info                      : Advanced Video Codec
Format profile                   : Main@L3.2
Format settings, CABAC           : Yes
Format settings, ReFrames        : 4 frames
Format settings, GOP             : M=3, N=50
Codec ID                         : avc1
Codec ID/Info                    : Advanced Video Coding
Duration                         : 28mn 16s
Bit rate mode                    : Constant
Bit rate                         : 2 600 Kbps
Width                            : 1 280 pixels
Height                           : 720 pixels
Display aspect ratio             : 16:9
Frame rate mode                  : Constant
Frame rate                       : 25.000 fps
Standard                         : PAL
Color space                      : YUV
Chroma subsampling               : 4:2:0
Bit depth                        : 8 bits
Scan type                        : Progressive
Bits/(Pixel*Frame)               : 0.113
Stream size                      : 525 MiB (94%)

Audio
ID                               : 2
Format                           : AAC
Format/Info                      : Advanced Audio Codec
Format profile                   : LC
Codec ID                         : 40
Duration                         : 28mn 16s
Bit rate mode                    : Variable
Bit rate                         : 157 Kbps
Maximum bit rate                 : 167 Kbps
Channel(s)                       : 2 channels
Channel positions                : Front: L R
Sampling rate                    : 48.0 KHz
Compression mode                 : Lossy
Stream size                      : 31.7 MiB (6%)